<svg width="326" height="315" viewBox="0 0 326 315" fill="none" xmlns="http://www.w3.org/2000/svg">
<mask id="mask0_235_1458" style="mask-type:luminance" maskUnits="userSpaceOnUse" x="0" y="0" width="283" height="315">
<path d="M0 0H282.188V314.379H0V0Z" fill="white"/>
</mask>
<g mask="url(#mask0_235_1458)">
<path d="M94.83 314.294C114.393 259.972 127.128 177.107 121.531 139.875C115.399 99.0258 89.3185 67.9689 69.9374 51.1562C46.4039 30.7477 74.5285 10.489 86.215 29.9023C91.6194 38.8812 98.7469 50.6425 106.013 62.9711C117.775 82.9516 136.664 97.6025 158.72 104.163C149.078 96.0614 139.575 80.7684 142.678 64.5871C146.231 46.03 163.611 33.5088 182.232 36.7301C200.843 39.9621 213.803 57.7593 210.089 76.2843C206.205 95.6226 193.309 105.511 181.965 108.904C204.107 110.819 237.936 102.001 278.881 23.9199C279.705 22.3574 280.583 20.9448 281.503 19.682C264.016 7.02162 242.291 0.0546875 218.448 0.0546875C196.477 0.0546875 177.812 6.79688 163.001 15.3156C148.19 6.79688 129.526 0.0546875 107.555 0.0546875C65.5282 0.0546875 30.1049 21.6939 12.7893 57.9305C2.2693 79.9336 -0.716526 105.458 4.16354 131.742C8.79746 156.741 20.5481 181.473 38.1421 203.273C51.177 219.422 73.5118 241.629 99.3569 262.016C98.8539 272.932 97.4413 298.777 94.83 314.294Z" fill="black"/>
</g>
<mask id="mask1_235_1458" style="mask-type:luminance" maskUnits="userSpaceOnUse" x="194" y="39" width="133" height="276">
<path d="M194.518 39.7256H326.001V314.379H194.518V39.7256Z" fill="white"/>
</mask>
<g mask="url(#mask1_235_1458)">
<path d="M313.21 57.9297C310.171 51.5942 306.586 45.6974 302.508 40.293C266.347 87.1994 246.484 102.739 211.425 143.277C177.125 182.949 202.167 269.153 223.882 314.294C220.436 298.615 218.006 278.057 217.064 269.367C246.912 247.118 273.228 221.38 287.847 203.272C305.451 181.472 317.202 156.74 321.836 131.741C326.705 105.457 323.72 79.9328 313.21 57.9297Z" fill="black"/>
</g>
<path d="M129.107 283.44C131.965 285.291 134.833 287.1 137.712 288.855L163 304.191L188.289 288.855C188.706 288.598 189.113 288.33 189.53 288.074C173.296 234.928 149.783 225.938 129.107 283.44Z" fill="black"/>
</svg>
