<svg width="1009" height="408" viewBox="0 0 1009 408" fill="none" xmlns="http://www.w3.org/2000/svg">
<path d="M493.5 33.25C503.75 33.25 511.75 36.25 517.5 42.25C523.25 48.1667 526.125 56.7083 526.125 67.875V122H509.875V68.5C509.875 61.5833 508.042 56.375 504.375 52.875C500.792 49.2917 496.083 47.5 490.25 47.5C483.75 47.5 478.542 49.3333 474.625 53C470.792 56.6667 468.875 62.2917 468.875 69.875V122H452.625V68.5C452.625 61.5 450.917 56.25 447.5 52.75C444.167 49.25 439.583 47.5 433.75 47.5C427.167 47.5 421.875 49.375 417.875 53.125C413.958 56.7917 412 62.375 412 69.875V122H395.75V34.5H411.5V46C414.167 41.9167 417.792 38.7917 422.375 36.625C426.958 34.375 432.25 33.25 438.25 33.25C444.417 33.25 449.792 34.4167 454.375 36.75C458.958 39.0833 462.417 42.375 464.75 46.625C467.667 42.375 471.625 39.0833 476.625 36.75C481.708 34.4167 487.333 33.25 493.5 33.25ZM589.451 33.25C597.285 33.25 604.118 34.7917 609.951 37.875C615.785 40.9583 620.285 45.5417 623.451 51.625C626.701 57.625 628.326 64.9167 628.326 73.5V122H612.076V99.5H566.576V122H550.576V73.5C550.576 64.9167 552.16 57.625 555.326 51.625C558.576 45.5417 563.118 40.9583 568.951 37.875C574.785 34.7917 581.618 33.25 589.451 33.25ZM612.076 85.875V72C612.076 63.9167 610.076 57.8333 606.076 53.75C602.076 49.5833 596.493 47.5 589.326 47.5C582.16 47.5 576.576 49.5833 572.576 53.75C568.576 57.8333 566.576 63.9167 566.576 72V85.875H612.076ZM653.558 34.5H691.808C701.141 34.5 709.433 36.3333 716.683 40C723.933 43.5833 729.558 48.7083 733.558 55.375C737.558 61.9583 739.558 69.5833 739.558 78.25C739.558 86.9167 737.558 94.5833 733.558 101.25C729.558 107.833 723.933 112.958 716.683 116.625C709.433 120.208 701.141 122 691.808 122H653.558V34.5ZM691.058 108.25C697.474 108.25 703.099 107.042 707.933 104.625C712.849 102.125 716.599 98.625 719.183 94.125C721.849 89.5417 723.183 84.25 723.183 78.25C723.183 72.25 721.849 67 719.183 62.5C716.599 57.9167 712.849 54.4167 707.933 52C703.099 49.5 697.474 48.25 691.058 48.25H669.808V108.25H691.058ZM837.25 123.25C828.333 123.25 820.292 121.333 813.125 117.5C805.958 113.583 800.333 108.208 796.25 101.375C792.167 94.4583 790.125 86.75 790.125 78.25C790.125 69.75 792.167 62.0833 796.25 55.25C800.333 48.3333 805.958 42.9583 813.125 39.125C820.292 35.2083 828.333 33.25 837.25 33.25C846.167 33.25 854.208 35.2083 861.375 39.125C868.542 42.9583 874.167 48.2917 878.25 55.125C882.333 61.9583 884.375 69.6667 884.375 78.25C884.375 86.8333 882.333 94.5417 878.25 101.375C874.167 108.208 868.542 113.583 861.375 117.5C854.208 121.333 846.167 123.25 837.25 123.25ZM837.25 109C843.083 109 848.333 107.708 853 105.125C857.667 102.458 861.333 98.7917 864 94.125C866.667 89.375 868 84.0833 868 78.25C868 72.4167 866.667 67.1667 864 62.5C861.333 57.75 857.667 54.0833 853 51.5C848.333 48.8333 843.083 47.5 837.25 47.5C831.417 47.5 826.167 48.8333 821.5 51.5C816.833 54.0833 813.167 57.75 810.5 62.5C807.833 67.1667 806.5 72.4167 806.5 78.25C806.5 84.0833 807.833 89.375 810.5 94.125C813.167 98.7917 816.833 102.458 821.5 105.125C826.167 107.708 831.417 109 837.25 109ZM963.85 77.25H979.225V122H965.85V116.875C959.6 121.125 951.766 123.25 942.35 123.25C934.266 123.25 926.85 121.5 920.1 118C913.35 114.5 907.933 109.417 903.85 102.75C899.85 96.0833 897.85 88.125 897.85 78.875C897.85 70.125 899.891 62.2917 903.975 55.375C908.058 48.375 913.683 42.9583 920.85 39.125C928.1 35.2083 936.225 33.25 945.225 33.25C952.558 33.25 959.225 34.4583 965.225 36.875C971.225 39.2917 976.266 42.8333 980.35 47.5L970.1 57.5C963.433 50.8333 955.391 47.5 945.975 47.5C939.808 47.5 934.308 48.8333 929.475 51.5C924.725 54.0833 920.975 57.75 918.225 62.5C915.558 67.25 914.225 72.6667 914.225 78.75C914.225 85.1667 915.558 90.7083 918.225 95.375C920.975 99.9583 924.6 103.458 929.1 105.875C933.6 108.208 938.516 109.375 943.85 109.375C947.6 109.375 951.183 108.792 954.6 107.625C958.1 106.458 961.183 104.75 963.85 102.5V77.25ZM493.5 185.25C503.75 185.25 511.75 188.25 517.5 194.25C523.25 200.167 526.125 208.708 526.125 219.875V274H509.875V220.5C509.875 213.583 508.042 208.375 504.375 204.875C500.792 201.292 496.083 199.5 490.25 199.5C483.75 199.5 478.542 201.333 474.625 205C470.792 208.667 468.875 214.292 468.875 221.875V274H452.625V220.5C452.625 213.5 450.917 208.25 447.5 204.75C444.167 201.25 439.583 199.5 433.75 199.5C427.167 199.5 421.875 201.375 417.875 205.125C413.958 208.792 412 214.375 412 221.875V274H395.75V186.5H411.5V198C414.167 193.917 417.792 190.792 422.375 188.625C426.958 186.375 432.25 185.25 438.25 185.25C444.417 185.25 449.792 186.417 454.375 188.75C458.958 191.083 462.417 194.375 464.75 198.625C467.667 194.375 471.625 191.083 476.625 188.75C481.708 186.417 487.333 185.25 493.5 185.25ZM592.201 275.25C583.285 275.25 575.243 273.333 568.076 269.5C560.91 265.583 555.285 260.208 551.201 253.375C547.118 246.458 545.076 238.75 545.076 230.25C545.076 221.75 547.118 214.083 551.201 207.25C555.285 200.333 560.91 194.958 568.076 191.125C575.243 187.208 583.285 185.25 592.201 185.25C601.118 185.25 609.16 187.208 616.326 191.125C623.493 194.958 629.118 200.292 633.201 207.125C637.285 213.958 639.326 221.667 639.326 230.25C639.326 238.833 637.285 246.542 633.201 253.375C629.118 260.208 623.493 265.583 616.326 269.5C609.16 273.333 601.118 275.25 592.201 275.25ZM592.201 261C598.035 261 603.285 259.708 607.951 257.125C612.618 254.458 616.285 250.792 618.951 246.125C621.618 241.375 622.951 236.083 622.951 230.25C622.951 224.417 621.618 219.167 618.951 214.5C616.285 209.75 612.618 206.083 607.951 203.5C603.285 200.833 598.035 199.5 592.201 199.5C586.368 199.5 581.118 200.833 576.451 203.5C571.785 206.083 568.118 209.75 565.451 214.5C562.785 219.167 561.451 224.417 561.451 230.25C561.451 236.083 562.785 241.375 565.451 246.125C568.118 250.792 571.785 254.458 576.451 257.125C581.118 259.708 586.368 261 592.201 261ZM676.801 274V200.25H647.801V186.5H722.051V200.25H693.051V274H676.801ZM763.621 200.125V260.375H779.746V274H731.371V260.375H747.496V200.125H731.371V186.5H779.746V200.125H763.621ZM843.104 275.25C834.188 275.25 826.146 273.333 818.979 269.5C811.813 265.583 806.188 260.208 802.104 253.375C798.021 246.458 795.979 238.75 795.979 230.25C795.979 221.75 798.021 214.083 802.104 207.25C806.188 200.333 811.813 194.958 818.979 191.125C826.146 187.208 834.188 185.25 843.104 185.25C852.021 185.25 860.063 187.208 867.229 191.125C874.396 194.958 880.021 200.292 884.104 207.125C888.188 213.958 890.229 221.667 890.229 230.25C890.229 238.833 888.188 246.542 884.104 253.375C880.021 260.208 874.396 265.583 867.229 269.5C860.063 273.333 852.021 275.25 843.104 275.25ZM843.104 261C848.938 261 854.188 259.708 858.854 257.125C863.521 254.458 867.188 250.792 869.854 246.125C872.521 241.375 873.854 236.083 873.854 230.25C873.854 224.417 872.521 219.167 869.854 214.5C867.188 209.75 863.521 206.083 858.854 203.5C854.188 200.833 848.938 199.5 843.104 199.5C837.271 199.5 832.021 200.833 827.354 203.5C822.688 206.083 819.021 209.75 816.354 214.5C813.688 219.167 812.354 224.417 812.354 230.25C812.354 236.083 813.688 241.375 816.354 246.125C819.021 250.792 822.688 254.458 827.354 257.125C832.021 259.708 837.271 261 843.104 261ZM953.454 185.25C963.954 185.25 972.121 188.458 977.954 194.875C983.871 201.292 986.829 210.458 986.829 222.375V274H970.579V223C970.579 215.25 968.704 209.417 964.954 205.5C961.287 201.5 956.162 199.5 949.579 199.5C942.412 199.5 936.704 201.625 932.454 205.875C928.287 210.042 926.204 216.292 926.204 224.625V274H909.954V186.5H925.704V197.5C931.787 189.333 941.037 185.25 953.454 185.25Z" fill="black"/>
<mask id="mask0_235_1369" style="mask-type:luminance" maskUnits="userSpaceOnUse" x="0" y="0" width="283" height="316">
<path d="M0 0.892578H282.188V315.271H0V0.892578Z" fill="white"/>
</mask>
<g mask="url(#mask0_235_1369)">
<path d="M94.83 315.187C114.393 260.864 127.128 177.999 121.531 140.768C115.399 99.9184 89.3185 68.8615 69.9374 52.0488C46.4039 31.6403 74.5285 11.3816 86.215 30.7949C91.6194 39.7737 98.7469 51.5351 106.013 63.8637C117.775 83.8441 136.664 98.495 158.72 105.055C149.078 96.954 139.575 81.661 142.678 65.4797C146.231 46.9226 163.611 34.4014 182.232 37.6227C200.843 40.8546 213.803 58.6519 210.089 77.1769C206.205 96.5152 193.309 106.404 181.965 109.796C204.107 111.712 237.936 102.894 278.881 24.8125C279.705 23.25 280.583 21.8374 281.503 20.5745C264.016 7.9142 242.291 0.947266 218.448 0.947266C196.477 0.947266 177.812 7.68946 163.001 16.2082C148.19 7.68946 129.526 0.947266 107.555 0.947266C65.5282 0.947266 30.1049 22.5865 12.7893 58.8231C2.2693 80.8262 -0.716526 106.35 4.16354 132.634C8.79746 157.634 20.5481 182.366 38.1421 204.166C51.177 220.315 73.5118 242.521 99.3569 262.908C98.8539 273.824 97.4413 299.669 94.83 315.187Z" fill="black"/>
</g>
<mask id="mask1_235_1369" style="mask-type:luminance" maskUnits="userSpaceOnUse" x="194" y="40" width="133" height="276">
<path d="M194.518 40.6182H326.001V315.272H194.518V40.6182Z" fill="white"/>
</mask>
<g mask="url(#mask1_235_1369)">
<path d="M313.21 58.8223C310.171 52.4867 306.586 46.59 302.508 41.1855C266.347 88.092 246.484 103.631 211.425 144.17C177.125 183.842 202.167 270.046 223.882 315.186C220.436 299.508 218.006 278.95 217.064 270.26C246.912 248.01 273.228 222.272 287.847 204.165C305.451 182.365 317.202 157.633 321.836 132.633C326.705 106.349 323.72 80.8254 313.21 58.8223Z" fill="black"/>
</g>
<path d="M129.107 284.332C131.965 286.184 134.833 287.992 137.712 289.747L163 305.083L188.289 289.747C188.706 289.491 189.113 289.223 189.53 288.966C173.296 235.821 149.783 226.831 129.107 284.332Z" fill="black"/>
<path d="M82.878 379.234C82.878 376.888 81.11 375.46 78.526 375.46H73.426V382.838H78.662C81.28 382.838 82.878 381.512 82.878 379.234ZM82.266 368.932C82.266 366.79 80.736 365.532 78.22 365.532H73.426V372.298H78.22C80.736 372.298 82.266 371.108 82.266 368.932ZM86.754 379.642C86.754 383.246 83.83 386 79.002 386H69.55V362.37H78.56C83.558 362.37 86.21 365.124 86.21 368.456C86.21 371.312 84.476 373.046 82.198 373.862C84.714 374.304 86.754 376.82 86.754 379.642ZM107.082 362.336V365.498H97.902V372.434H106.062V375.596H97.902V382.838H107.082V386H94.026V362.336H107.082ZM122.634 362.37C130.216 362.37 135.18 366.96 135.18 374.27C135.18 381.546 130.216 386 122.634 386H114.916V362.37H122.634ZM118.792 382.838H122.634C128.21 382.838 131.202 379.642 131.202 374.27C131.202 368.864 128.21 365.532 122.634 365.532H118.792V382.838ZM154.628 369.442C154.628 367.062 153.268 365.532 150.242 365.532H145.958V373.454H150.242C153.268 373.454 154.628 371.788 154.628 369.442ZM142.082 362.37H150.242C155.852 362.37 158.606 365.6 158.606 369.442C158.606 372.23 157.11 375.222 153.132 376.208L158.98 386H154.356L148.916 376.548H145.958V386H142.082V362.37ZM179.68 362.336V365.498H170.5V372.434H178.66V375.596H170.5V382.838H179.68V386H166.624V362.336H179.68ZM198.182 365.532V362.37H214.672V365.532H208.382V386H204.506V365.532H198.182ZM234.203 369.442C234.203 367.062 232.843 365.532 229.817 365.532H225.533V373.454H229.817C232.843 373.454 234.203 371.788 234.203 369.442ZM221.657 362.37H229.817C235.427 362.37 238.181 365.6 238.181 369.442C238.181 372.23 236.685 375.222 232.707 376.208L238.555 386H233.931L228.491 376.548H225.533V386H221.657V362.37ZM246.2 386V362.37H250.076V386H246.2ZM267.473 382.022L274.511 362.37H278.591L269.717 386H265.229L256.321 362.37H260.469L267.473 382.022ZM300.838 379.302C300.838 382.838 297.948 386.238 292.678 386.238C287.952 386.238 284.314 383.654 284.314 379.472H288.462C288.632 381.41 289.992 382.974 292.678 382.974C295.398 382.974 296.928 381.512 296.928 379.506C296.928 373.794 284.382 377.5 284.382 368.796C284.382 364.648 287.68 362.064 292.508 362.064C297.03 362.064 300.226 364.444 300.566 368.49H296.282C296.146 366.892 294.752 365.43 292.304 365.362C290.06 365.294 288.326 366.382 288.326 368.66C288.326 373.998 300.838 370.666 300.838 379.302ZM321.528 362.336V365.498H312.348V372.434H320.508V375.596H312.348V382.838H321.528V386H308.472V362.336H321.528ZM329.362 362.37H333.238V382.872H341.228V386H329.362V362.37ZM356.769 375.324V372.06H370.743V375.324H356.769ZM407.93 374.134C407.93 381.24 402.592 386.238 395.86 386.238C389.196 386.238 383.79 381.24 383.79 374.134C383.79 367.062 389.196 362.064 395.86 362.064C402.592 362.064 407.93 367.062 407.93 374.134ZM387.768 374.134C387.768 379.472 391.168 382.872 395.86 382.872C400.552 382.872 403.952 379.472 403.952 374.134C403.952 368.796 400.552 365.464 395.86 365.464C391.168 365.464 387.768 368.796 387.768 374.134ZM425.582 362.064C430.512 362.064 434.762 364.546 436.564 369.17H431.906C430.648 366.79 428.404 365.6 425.582 365.6C420.89 365.6 417.49 368.932 417.49 374.134C417.49 379.336 420.89 382.702 425.582 382.702C429.866 382.702 432.552 380.118 433.13 376.14H424.256V373.046H437.278V376.072C436.564 381.546 431.94 386.204 425.582 386.204C418.918 386.204 413.512 381.24 413.512 374.134C413.512 367.062 418.918 362.064 425.582 362.064ZM460.107 379.302C460.107 382.838 457.217 386.238 451.947 386.238C447.221 386.238 443.583 383.654 443.583 379.472H447.731C447.901 381.41 449.261 382.974 451.947 382.974C454.667 382.974 456.197 381.512 456.197 379.506C456.197 373.794 443.651 377.5 443.651 368.796C443.651 364.648 446.949 362.064 451.777 362.064C456.299 362.064 459.495 364.444 459.835 368.49H455.551C455.415 366.892 454.021 365.43 451.573 365.362C449.329 365.294 447.595 366.382 447.595 368.66C447.595 373.998 460.107 370.666 460.107 379.302ZM483.686 386L481.986 381.172H472.092L470.392 386H466.346L474.812 362.336H479.3L487.766 386H483.686ZM477.056 358.494C477.974 358.494 478.722 357.78 478.722 356.76C478.722 355.706 477.974 355.026 477.056 355.026C476.172 355.026 475.424 355.706 475.424 356.76C475.424 357.78 476.172 358.494 477.056 358.494ZM477.056 353.054C479.198 353.054 480.898 354.482 480.898 356.794C480.898 359.072 479.198 360.5 477.056 360.5C474.982 360.5 473.248 359.072 473.248 356.794C473.248 354.482 474.982 353.054 477.056 353.054ZM480.898 378.01L477.056 367.028L473.18 378.01H480.898ZM506.4 386V362.37H510.582L518.878 380.9L527.14 362.37H531.288V386H527.412V369.816L520.204 386H517.518L510.276 369.816V386H506.4ZM552.498 362.336V365.498H543.318V372.434H551.478V375.596H543.318V382.838H552.498V386H539.442V362.336H552.498ZM568.05 362.37C575.632 362.37 580.596 366.96 580.596 374.27C580.596 381.546 575.632 386 568.05 386H560.332V362.37H568.05ZM564.208 382.838H568.05C573.626 382.838 576.618 379.642 576.618 374.27C576.618 368.864 573.626 365.532 568.05 365.532H564.208V382.838ZM612.412 386L603.266 375.426V386H599.39V362.37H603.266V373.148L612.446 362.37H617.308L607.04 374.202L617.478 386H612.412ZM636.511 369.442C636.511 367.062 635.151 365.532 632.125 365.532H627.841V373.454H632.125C635.151 373.454 636.511 371.788 636.511 369.442ZM623.965 362.37H632.125C637.735 362.37 640.489 365.6 640.489 369.442C640.489 372.23 638.993 375.222 635.015 376.208L640.863 386H636.239L630.799 376.548H627.841V386H623.965V362.37ZM671.356 374.134C671.356 381.24 666.018 386.238 659.286 386.238C652.622 386.238 647.216 381.24 647.216 374.134C647.216 367.062 652.622 362.064 659.286 362.064C666.018 362.064 671.356 367.062 671.356 374.134ZM651.194 374.134C651.194 379.472 654.594 382.872 659.286 382.872C663.978 382.872 667.378 379.472 667.378 374.134C667.378 368.796 663.978 365.464 659.286 365.464C654.594 365.464 651.194 368.796 651.194 374.134ZM693.768 362.336H697.644V386H693.768L682.106 368.354V386H678.23V362.336H682.106L693.768 379.948V362.336ZM705.794 386V362.37H709.67V386H705.794ZM733.764 379.302C733.764 382.838 730.874 386.238 725.604 386.238C720.878 386.238 717.24 383.654 717.24 379.472H721.388C721.558 381.41 722.918 382.974 725.604 382.974C728.324 382.974 729.854 381.512 729.854 379.506C729.854 373.794 717.308 377.5 717.308 368.796C717.308 364.648 720.606 362.064 725.434 362.064C729.956 362.064 733.152 364.444 733.492 368.49H729.208C729.072 366.892 727.678 365.43 725.23 365.362C722.986 365.294 721.252 366.382 721.252 368.66C721.252 373.998 733.764 370.666 733.764 379.302ZM754.42 386L745.274 375.426V386H741.398V362.37H745.274V373.148L754.454 362.37H759.316L749.048 374.202L759.486 386H754.42ZM793.812 379.302C793.812 382.838 790.922 386.238 785.652 386.238C780.926 386.238 777.288 383.654 777.288 379.472H781.436C781.606 381.41 782.966 382.974 785.652 382.974C788.372 382.974 789.902 381.512 789.902 379.506C789.902 373.794 777.356 377.5 777.356 368.796C777.356 364.648 780.654 362.064 785.482 362.064C790.004 362.064 793.2 364.444 793.54 368.49H789.256C789.12 366.892 787.726 365.43 785.278 365.362C783.034 365.294 781.3 366.382 781.3 368.66C781.3 373.998 793.812 370.666 793.812 379.302ZM807.259 377.432L799.405 362.37H803.723L809.197 373.964L814.671 362.37H818.955L811.135 377.432V386H807.259V377.432ZM835.869 362.064C840.799 362.064 845.049 364.546 846.851 369.17H842.193C840.935 366.79 838.691 365.6 835.869 365.6C831.177 365.6 827.777 368.932 827.777 374.134C827.777 379.336 831.177 382.702 835.869 382.702C840.153 382.702 842.839 380.118 843.417 376.14H834.543V373.046H847.565V376.072C846.851 381.546 842.227 386.204 835.869 386.204C829.205 386.204 823.799 381.24 823.799 374.134C823.799 367.062 829.205 362.064 835.869 362.064ZM862.166 362.37C869.748 362.37 874.712 366.96 874.712 374.27C874.712 381.546 869.748 386 862.166 386H854.448V362.37H862.166ZM858.324 382.838H862.166C867.742 382.838 870.734 379.642 870.734 374.27C870.734 368.864 867.742 365.532 862.166 365.532H858.324V382.838ZM904.461 374.134C904.461 381.24 899.123 386.238 892.391 386.238C885.727 386.238 880.321 381.24 880.321 374.134C880.321 367.062 885.727 362.064 892.391 362.064C899.123 362.064 904.461 367.062 904.461 374.134ZM884.299 374.134C884.299 379.472 887.699 382.872 892.391 382.872C897.083 382.872 900.483 379.472 900.483 374.134C900.483 368.796 897.083 365.464 892.391 365.464C887.699 365.464 884.299 368.796 884.299 374.134ZM911.336 386V362.37H915.518L923.814 380.9L932.076 362.37H936.224V386H932.348V369.816L925.14 386H922.454L915.212 369.816V386H911.336Z" fill="black"/>
</svg>
