<svg width="1009" height="315" viewBox="0 0 1009 315" fill="none" xmlns="http://www.w3.org/2000/svg">
<path d="M493.5 32.25C503.75 32.25 511.75 35.25 517.5 41.25C523.25 47.1667 526.125 55.7083 526.125 66.875V121H509.875V67.5C509.875 60.5833 508.042 55.375 504.375 51.875C500.792 48.2917 496.083 46.5 490.25 46.5C483.75 46.5 478.542 48.3333 474.625 52C470.792 55.6667 468.875 61.2917 468.875 68.875V121H452.625V67.5C452.625 60.5 450.917 55.25 447.5 51.75C444.167 48.25 439.583 46.5 433.75 46.5C427.167 46.5 421.875 48.375 417.875 52.125C413.958 55.7917 412 61.375 412 68.875V121H395.75V33.5H411.5V45C414.167 40.9167 417.792 37.7917 422.375 35.625C426.958 33.375 432.25 32.25 438.25 32.25C444.417 32.25 449.792 33.4167 454.375 35.75C458.958 38.0833 462.417 41.375 464.75 45.625C467.667 41.375 471.625 38.0833 476.625 35.75C481.708 33.4167 487.333 32.25 493.5 32.25ZM589.451 32.25C597.285 32.25 604.118 33.7917 609.951 36.875C615.785 39.9583 620.285 44.5417 623.451 50.625C626.701 56.625 628.326 63.9167 628.326 72.5V121H612.076V98.5H566.576V121H550.576V72.5C550.576 63.9167 552.16 56.625 555.326 50.625C558.576 44.5417 563.118 39.9583 568.951 36.875C574.785 33.7917 581.618 32.25 589.451 32.25ZM612.076 84.875V71C612.076 62.9167 610.076 56.8333 606.076 52.75C602.076 48.5833 596.493 46.5 589.326 46.5C582.16 46.5 576.576 48.5833 572.576 52.75C568.576 56.8333 566.576 62.9167 566.576 71V84.875H612.076ZM653.558 33.5H691.808C701.141 33.5 709.433 35.3333 716.683 39C723.933 42.5833 729.558 47.7083 733.558 54.375C737.558 60.9583 739.558 68.5833 739.558 77.25C739.558 85.9167 737.558 93.5833 733.558 100.25C729.558 106.833 723.933 111.958 716.683 115.625C709.433 119.208 701.141 121 691.808 121H653.558V33.5ZM691.058 107.25C697.474 107.25 703.099 106.042 707.933 103.625C712.849 101.125 716.599 97.625 719.183 93.125C721.849 88.5417 723.183 83.25 723.183 77.25C723.183 71.25 721.849 66 719.183 61.5C716.599 56.9167 712.849 53.4167 707.933 51C703.099 48.5 697.474 47.25 691.058 47.25H669.808V107.25H691.058ZM837.25 122.25C828.333 122.25 820.292 120.333 813.125 116.5C805.958 112.583 800.333 107.208 796.25 100.375C792.167 93.4583 790.125 85.75 790.125 77.25C790.125 68.75 792.167 61.0833 796.25 54.25C800.333 47.3333 805.958 41.9583 813.125 38.125C820.292 34.2083 828.333 32.25 837.25 32.25C846.167 32.25 854.208 34.2083 861.375 38.125C868.542 41.9583 874.167 47.2917 878.25 54.125C882.333 60.9583 884.375 68.6667 884.375 77.25C884.375 85.8333 882.333 93.5417 878.25 100.375C874.167 107.208 868.542 112.583 861.375 116.5C854.208 120.333 846.167 122.25 837.25 122.25ZM837.25 108C843.083 108 848.333 106.708 853 104.125C857.667 101.458 861.333 97.7917 864 93.125C866.667 88.375 868 83.0833 868 77.25C868 71.4167 866.667 66.1667 864 61.5C861.333 56.75 857.667 53.0833 853 50.5C848.333 47.8333 843.083 46.5 837.25 46.5C831.417 46.5 826.167 47.8333 821.5 50.5C816.833 53.0833 813.167 56.75 810.5 61.5C807.833 66.1667 806.5 71.4167 806.5 77.25C806.5 83.0833 807.833 88.375 810.5 93.125C813.167 97.7917 816.833 101.458 821.5 104.125C826.167 106.708 831.417 108 837.25 108ZM963.85 76.25H979.225V121H965.85V115.875C959.6 120.125 951.766 122.25 942.35 122.25C934.266 122.25 926.85 120.5 920.1 117C913.35 113.5 907.933 108.417 903.85 101.75C899.85 95.0833 897.85 87.125 897.85 77.875C897.85 69.125 899.891 61.2917 903.975 54.375C908.058 47.375 913.683 41.9583 920.85 38.125C928.1 34.2083 936.225 32.25 945.225 32.25C952.558 32.25 959.225 33.4583 965.225 35.875C971.225 38.2917 976.266 41.8333 980.35 46.5L970.1 56.5C963.433 49.8333 955.391 46.5 945.975 46.5C939.808 46.5 934.308 47.8333 929.475 50.5C924.725 53.0833 920.975 56.75 918.225 61.5C915.558 66.25 914.225 71.6667 914.225 77.75C914.225 84.1667 915.558 89.7083 918.225 94.375C920.975 98.9583 924.6 102.458 929.1 104.875C933.6 107.208 938.516 108.375 943.85 108.375C947.6 108.375 951.183 107.792 954.6 106.625C958.1 105.458 961.183 103.75 963.85 101.5V76.25ZM493.5 184.25C503.75 184.25 511.75 187.25 517.5 193.25C523.25 199.167 526.125 207.708 526.125 218.875V273H509.875V219.5C509.875 212.583 508.042 207.375 504.375 203.875C500.792 200.292 496.083 198.5 490.25 198.5C483.75 198.5 478.542 200.333 474.625 204C470.792 207.667 468.875 213.292 468.875 220.875V273H452.625V219.5C452.625 212.5 450.917 207.25 447.5 203.75C444.167 200.25 439.583 198.5 433.75 198.5C427.167 198.5 421.875 200.375 417.875 204.125C413.958 207.792 412 213.375 412 220.875V273H395.75V185.5H411.5V197C414.167 192.917 417.792 189.792 422.375 187.625C426.958 185.375 432.25 184.25 438.25 184.25C444.417 184.25 449.792 185.417 454.375 187.75C458.958 190.083 462.417 193.375 464.75 197.625C467.667 193.375 471.625 190.083 476.625 187.75C481.708 185.417 487.333 184.25 493.5 184.25ZM592.201 274.25C583.285 274.25 575.243 272.333 568.076 268.5C560.91 264.583 555.285 259.208 551.201 252.375C547.118 245.458 545.076 237.75 545.076 229.25C545.076 220.75 547.118 213.083 551.201 206.25C555.285 199.333 560.91 193.958 568.076 190.125C575.243 186.208 583.285 184.25 592.201 184.25C601.118 184.25 609.16 186.208 616.326 190.125C623.493 193.958 629.118 199.292 633.201 206.125C637.285 212.958 639.326 220.667 639.326 229.25C639.326 237.833 637.285 245.542 633.201 252.375C629.118 259.208 623.493 264.583 616.326 268.5C609.16 272.333 601.118 274.25 592.201 274.25ZM592.201 260C598.035 260 603.285 258.708 607.951 256.125C612.618 253.458 616.285 249.792 618.951 245.125C621.618 240.375 622.951 235.083 622.951 229.25C622.951 223.417 621.618 218.167 618.951 213.5C616.285 208.75 612.618 205.083 607.951 202.5C603.285 199.833 598.035 198.5 592.201 198.5C586.368 198.5 581.118 199.833 576.451 202.5C571.785 205.083 568.118 208.75 565.451 213.5C562.785 218.167 561.451 223.417 561.451 229.25C561.451 235.083 562.785 240.375 565.451 245.125C568.118 249.792 571.785 253.458 576.451 256.125C581.118 258.708 586.368 260 592.201 260ZM676.801 273V199.25H647.801V185.5H722.051V199.25H693.051V273H676.801ZM763.621 199.125V259.375H779.746V273H731.371V259.375H747.496V199.125H731.371V185.5H779.746V199.125H763.621ZM843.104 274.25C834.188 274.25 826.146 272.333 818.979 268.5C811.813 264.583 806.188 259.208 802.104 252.375C798.021 245.458 795.979 237.75 795.979 229.25C795.979 220.75 798.021 213.083 802.104 206.25C806.188 199.333 811.813 193.958 818.979 190.125C826.146 186.208 834.188 184.25 843.104 184.25C852.021 184.25 860.063 186.208 867.229 190.125C874.396 193.958 880.021 199.292 884.104 206.125C888.188 212.958 890.229 220.667 890.229 229.25C890.229 237.833 888.188 245.542 884.104 252.375C880.021 259.208 874.396 264.583 867.229 268.5C860.063 272.333 852.021 274.25 843.104 274.25ZM843.104 260C848.938 260 854.188 258.708 858.854 256.125C863.521 253.458 867.188 249.792 869.854 245.125C872.521 240.375 873.854 235.083 873.854 229.25C873.854 223.417 872.521 218.167 869.854 213.5C867.188 208.75 863.521 205.083 858.854 202.5C854.188 199.833 848.938 198.5 843.104 198.5C837.271 198.5 832.021 199.833 827.354 202.5C822.688 205.083 819.021 208.75 816.354 213.5C813.688 218.167 812.354 223.417 812.354 229.25C812.354 235.083 813.688 240.375 816.354 245.125C819.021 249.792 822.688 253.458 827.354 256.125C832.021 258.708 837.271 260 843.104 260ZM953.454 184.25C963.954 184.25 972.121 187.458 977.954 193.875C983.871 200.292 986.829 209.458 986.829 221.375V273H970.579V222C970.579 214.25 968.704 208.417 964.954 204.5C961.287 200.5 956.162 198.5 949.579 198.5C942.412 198.5 936.704 200.625 932.454 204.875C928.287 209.042 926.204 215.292 926.204 223.625V273H909.954V185.5H925.704V196.5C931.787 188.333 941.037 184.25 953.454 184.25Z" fill="white"/>
<mask id="mask0_235_1421" style="mask-type:luminance" maskUnits="userSpaceOnUse" x="0" y="0" width="283" height="315">
<path d="M0 0H282.188V314.379H0V0Z" fill="white"/>
</mask>
<g mask="url(#mask0_235_1421)">
<path d="M94.83 314.294C114.393 259.972 127.128 177.107 121.531 139.875C115.399 99.0258 89.3185 67.9689 69.9374 51.1562C46.4039 30.7477 74.5285 10.489 86.215 29.9023C91.6194 38.8812 98.7469 50.6425 106.013 62.9711C117.775 82.9516 136.664 97.6025 158.72 104.163C149.078 96.0614 139.575 80.7684 142.678 64.5871C146.231 46.03 163.611 33.5088 182.232 36.7301C200.843 39.9621 213.803 57.7593 210.089 76.2843C206.205 95.6226 193.309 105.511 181.965 108.904C204.107 110.819 237.936 102.001 278.881 23.9199C279.705 22.3574 280.583 20.9448 281.503 19.682C264.016 7.02162 242.291 0.0546875 218.448 0.0546875C196.477 0.0546875 177.812 6.79688 163.001 15.3156C148.19 6.79688 129.526 0.0546875 107.555 0.0546875C65.5282 0.0546875 30.1049 21.6939 12.7893 57.9305C2.2693 79.9336 -0.716526 105.458 4.16354 131.742C8.79746 156.741 20.5481 181.473 38.1421 203.273C51.177 219.422 73.5118 241.629 99.3569 262.016C98.8539 272.932 97.4413 298.777 94.83 314.294Z" fill="white"/>
</g>
<mask id="mask1_235_1421" style="mask-type:luminance" maskUnits="userSpaceOnUse" x="194" y="39" width="133" height="276">
<path d="M194.518 39.7256H326.001V314.379H194.518V39.7256Z" fill="white"/>
</mask>
<g mask="url(#mask1_235_1421)">
<path d="M313.21 57.9297C310.171 51.5942 306.586 45.6974 302.508 40.293C266.347 87.1994 246.484 102.739 211.425 143.277C177.125 182.949 202.167 269.153 223.882 314.294C220.436 298.615 218.006 278.057 217.064 269.367C246.912 247.118 273.228 221.38 287.847 203.272C305.451 181.472 317.202 156.74 321.836 131.741C326.705 105.457 323.72 79.9328 313.21 57.9297Z" fill="white"/>
</g>
<path d="M129.107 283.44C131.965 285.291 134.833 287.1 137.712 288.855L163 304.191L188.289 288.855C188.706 288.598 189.113 288.33 189.53 288.074C173.296 234.928 149.783 225.938 129.107 283.44Z" fill="white"/>
</svg>
