<svg width="1009" height="408" viewBox="0 0 1009 408" fill="none" xmlns="http://www.w3.org/2000/svg">
<path d="M493.5 33.25C503.75 33.25 511.75 36.25 517.5 42.25C523.25 48.1667 526.125 56.7083 526.125 67.875V122H509.875V68.5C509.875 61.5833 508.042 56.375 504.375 52.875C500.792 49.2917 496.083 47.5 490.25 47.5C483.75 47.5 478.542 49.3333 474.625 53C470.792 56.6667 468.875 62.2917 468.875 69.875V122H452.625V68.5C452.625 61.5 450.917 56.25 447.5 52.75C444.167 49.25 439.583 47.5 433.75 47.5C427.167 47.5 421.875 49.375 417.875 53.125C413.958 56.7917 412 62.375 412 69.875V122H395.75V34.5H411.5V46C414.167 41.9167 417.792 38.7917 422.375 36.625C426.958 34.375 432.25 33.25 438.25 33.25C444.417 33.25 449.792 34.4167 454.375 36.75C458.958 39.0833 462.417 42.375 464.75 46.625C467.667 42.375 471.625 39.0833 476.625 36.75C481.708 34.4167 487.333 33.25 493.5 33.25ZM589.451 33.25C597.285 33.25 604.118 34.7917 609.951 37.875C615.785 40.9583 620.285 45.5417 623.451 51.625C626.701 57.625 628.326 64.9167 628.326 73.5V122H612.076V99.5H566.576V122H550.576V73.5C550.576 64.9167 552.16 57.625 555.326 51.625C558.576 45.5417 563.118 40.9583 568.951 37.875C574.785 34.7917 581.618 33.25 589.451 33.25ZM612.076 85.875V72C612.076 63.9167 610.076 57.8333 606.076 53.75C602.076 49.5833 596.493 47.5 589.326 47.5C582.16 47.5 576.576 49.5833 572.576 53.75C568.576 57.8333 566.576 63.9167 566.576 72V85.875H612.076ZM653.558 34.5H691.808C701.141 34.5 709.433 36.3333 716.683 40C723.933 43.5833 729.558 48.7083 733.558 55.375C737.558 61.9583 739.558 69.5833 739.558 78.25C739.558 86.9167 737.558 94.5833 733.558 101.25C729.558 107.833 723.933 112.958 716.683 116.625C709.433 120.208 701.141 122 691.808 122H653.558V34.5ZM691.058 108.25C697.474 108.25 703.099 107.042 707.933 104.625C712.849 102.125 716.599 98.625 719.183 94.125C721.849 89.5417 723.183 84.25 723.183 78.25C723.183 72.25 721.849 67 719.183 62.5C716.599 57.9167 712.849 54.4167 707.933 52C703.099 49.5 697.474 48.25 691.058 48.25H669.808V108.25H691.058ZM837.25 123.25C828.333 123.25 820.292 121.333 813.125 117.5C805.958 113.583 800.333 108.208 796.25 101.375C792.167 94.4583 790.125 86.75 790.125 78.25C790.125 69.75 792.167 62.0833 796.25 55.25C800.333 48.3333 805.958 42.9583 813.125 39.125C820.292 35.2083 828.333 33.25 837.25 33.25C846.167 33.25 854.208 35.2083 861.375 39.125C868.542 42.9583 874.167 48.2917 878.25 55.125C882.333 61.9583 884.375 69.6667 884.375 78.25C884.375 86.8333 882.333 94.5417 878.25 101.375C874.167 108.208 868.542 113.583 861.375 117.5C854.208 121.333 846.167 123.25 837.25 123.25ZM837.25 109C843.083 109 848.333 107.708 853 105.125C857.667 102.458 861.333 98.7917 864 94.125C866.667 89.375 868 84.0833 868 78.25C868 72.4167 866.667 67.1667 864 62.5C861.333 57.75 857.667 54.0833 853 51.5C848.333 48.8333 843.083 47.5 837.25 47.5C831.417 47.5 826.167 48.8333 821.5 51.5C816.833 54.0833 813.167 57.75 810.5 62.5C807.833 67.1667 806.5 72.4167 806.5 78.25C806.5 84.0833 807.833 89.375 810.5 94.125C813.167 98.7917 816.833 102.458 821.5 105.125C826.167 107.708 831.417 109 837.25 109ZM963.85 77.25H979.225V122H965.85V116.875C959.6 121.125 951.766 123.25 942.35 123.25C934.266 123.25 926.85 121.5 920.1 118C913.35 114.5 907.933 109.417 903.85 102.75C899.85 96.0833 897.85 88.125 897.85 78.875C897.85 70.125 899.891 62.2917 903.975 55.375C908.058 48.375 913.683 42.9583 920.85 39.125C928.1 35.2083 936.225 33.25 945.225 33.25C952.558 33.25 959.225 34.4583 965.225 36.875C971.225 39.2917 976.266 42.8333 980.35 47.5L970.1 57.5C963.433 50.8333 955.391 47.5 945.975 47.5C939.808 47.5 934.308 48.8333 929.475 51.5C924.725 54.0833 920.975 57.75 918.225 62.5C915.558 67.25 914.225 72.6667 914.225 78.75C914.225 85.1667 915.558 90.7083 918.225 95.375C920.975 99.9583 924.6 103.458 929.1 105.875C933.6 108.208 938.516 109.375 943.85 109.375C947.6 109.375 951.183 108.792 954.6 107.625C958.1 106.458 961.183 104.75 963.85 102.5V77.25ZM493.5 185.25C503.75 185.25 511.75 188.25 517.5 194.25C523.25 200.167 526.125 208.708 526.125 219.875V274H509.875V220.5C509.875 213.583 508.042 208.375 504.375 204.875C500.792 201.292 496.083 199.5 490.25 199.5C483.75 199.5 478.542 201.333 474.625 205C470.792 208.667 468.875 214.292 468.875 221.875V274H452.625V220.5C452.625 213.5 450.917 208.25 447.5 204.75C444.167 201.25 439.583 199.5 433.75 199.5C427.167 199.5 421.875 201.375 417.875 205.125C413.958 208.792 412 214.375 412 221.875V274H395.75V186.5H411.5V198C414.167 193.917 417.792 190.792 422.375 188.625C426.958 186.375 432.25 185.25 438.25 185.25C444.417 185.25 449.792 186.417 454.375 188.75C458.958 191.083 462.417 194.375 464.75 198.625C467.667 194.375 471.625 191.083 476.625 188.75C481.708 186.417 487.333 185.25 493.5 185.25ZM592.201 275.25C583.285 275.25 575.243 273.333 568.076 269.5C560.91 265.583 555.285 260.208 551.201 253.375C547.118 246.458 545.076 238.75 545.076 230.25C545.076 221.75 547.118 214.083 551.201 207.25C555.285 200.333 560.91 194.958 568.076 191.125C575.243 187.208 583.285 185.25 592.201 185.25C601.118 185.25 609.16 187.208 616.326 191.125C623.493 194.958 629.118 200.292 633.201 207.125C637.285 213.958 639.326 221.667 639.326 230.25C639.326 238.833 637.285 246.542 633.201 253.375C629.118 260.208 623.493 265.583 616.326 269.5C609.16 273.333 601.118 275.25 592.201 275.25ZM592.201 261C598.035 261 603.285 259.708 607.951 257.125C612.618 254.458 616.285 250.792 618.951 246.125C621.618 241.375 622.951 236.083 622.951 230.25C622.951 224.417 621.618 219.167 618.951 214.5C616.285 209.75 612.618 206.083 607.951 203.5C603.285 200.833 598.035 199.5 592.201 199.5C586.368 199.5 581.118 200.833 576.451 203.5C571.785 206.083 568.118 209.75 565.451 214.5C562.785 219.167 561.451 224.417 561.451 230.25C561.451 236.083 562.785 241.375 565.451 246.125C568.118 250.792 571.785 254.458 576.451 257.125C581.118 259.708 586.368 261 592.201 261ZM676.801 274V200.25H647.801V186.5H722.051V200.25H693.051V274H676.801ZM763.621 200.125V260.375H779.746V274H731.371V260.375H747.496V200.125H731.371V186.5H779.746V200.125H763.621ZM843.104 275.25C834.188 275.25 826.146 273.333 818.979 269.5C811.813 265.583 806.188 260.208 802.104 253.375C798.021 246.458 795.979 238.75 795.979 230.25C795.979 221.75 798.021 214.083 802.104 207.25C806.188 200.333 811.813 194.958 818.979 191.125C826.146 187.208 834.188 185.25 843.104 185.25C852.021 185.25 860.063 187.208 867.229 191.125C874.396 194.958 880.021 200.292 884.104 207.125C888.188 213.958 890.229 221.667 890.229 230.25C890.229 238.833 888.188 246.542 884.104 253.375C880.021 260.208 874.396 265.583 867.229 269.5C860.063 273.333 852.021 275.25 843.104 275.25ZM843.104 261C848.938 261 854.188 259.708 858.854 257.125C863.521 254.458 867.188 250.792 869.854 246.125C872.521 241.375 873.854 236.083 873.854 230.25C873.854 224.417 872.521 219.167 869.854 214.5C867.188 209.75 863.521 206.083 858.854 203.5C854.188 200.833 848.938 199.5 843.104 199.5C837.271 199.5 832.021 200.833 827.354 203.5C822.688 206.083 819.021 209.75 816.354 214.5C813.688 219.167 812.354 224.417 812.354 230.25C812.354 236.083 813.688 241.375 816.354 246.125C819.021 250.792 822.688 254.458 827.354 257.125C832.021 259.708 837.271 261 843.104 261ZM953.454 185.25C963.954 185.25 972.121 188.458 977.954 194.875C983.871 201.292 986.829 210.458 986.829 222.375V274H970.579V223C970.579 215.25 968.704 209.417 964.954 205.5C961.287 201.5 956.162 199.5 949.579 199.5C942.412 199.5 936.704 201.625 932.454 205.875C928.287 210.042 926.204 216.292 926.204 224.625V274H909.954V186.5H925.704V197.5C931.787 189.333 941.037 185.25 953.454 185.25Z" fill="white"/>
<mask id="mask0_235_1341" style="mask-type:luminance" maskUnits="userSpaceOnUse" x="0" y="0" width="283" height="316">
<path d="M0 0.892578H282.188V315.271H0V0.892578Z" fill="white"/>
</mask>
<g mask="url(#mask0_235_1341)">
<path d="M94.83 315.187C114.393 260.864 127.128 177.999 121.531 140.768C115.399 99.9184 89.3185 68.8615 69.9374 52.0488C46.4039 31.6403 74.5285 11.3816 86.215 30.7949C91.6194 39.7737 98.7469 51.5351 106.013 63.8637C117.775 83.8441 136.664 98.495 158.72 105.055C149.078 96.954 139.575 81.661 142.678 65.4797C146.231 46.9226 163.611 34.4014 182.232 37.6227C200.843 40.8546 213.803 58.6519 210.089 77.1769C206.205 96.5152 193.309 106.404 181.965 109.796C204.107 111.712 237.936 102.894 278.881 24.8125C279.705 23.25 280.583 21.8374 281.503 20.5745C264.016 7.9142 242.291 0.947266 218.448 0.947266C196.477 0.947266 177.812 7.68946 163.001 16.2082C148.19 7.68946 129.526 0.947266 107.555 0.947266C65.5282 0.947266 30.1049 22.5865 12.7893 58.8231C2.2693 80.8262 -0.716526 106.35 4.16354 132.634C8.79746 157.634 20.5481 182.366 38.1421 204.166C51.177 220.315 73.5118 242.521 99.3569 262.908C98.8539 273.824 97.4413 299.669 94.83 315.187Z" fill="white"/>
</g>
<mask id="mask1_235_1341" style="mask-type:luminance" maskUnits="userSpaceOnUse" x="194" y="40" width="133" height="276">
<path d="M194.518 40.6182H326.001V315.272H194.518V40.6182Z" fill="white"/>
</mask>
<g mask="url(#mask1_235_1341)">
<path d="M313.21 58.8223C310.171 52.4867 306.586 46.59 302.508 41.1855C266.347 88.092 246.484 103.631 211.425 144.17C177.125 183.842 202.167 270.046 223.882 315.186C220.436 299.508 218.006 278.95 217.064 270.26C246.912 248.01 273.228 222.272 287.847 204.165C305.451 182.365 317.202 157.633 321.836 132.633C326.705 106.349 323.72 80.8254 313.21 58.8223Z" fill="white"/>
</g>
<path d="M129.107 284.332C131.965 286.184 134.833 287.992 137.712 289.747L163 305.083L188.289 289.747C188.706 289.491 189.113 289.223 189.53 288.966C173.296 235.821 149.783 226.831 129.107 284.332Z" fill="white"/>
<path d="M74.878 379.234C74.878 376.888 73.11 375.46 70.526 375.46H65.426V382.838H70.662C73.28 382.838 74.878 381.512 74.878 379.234ZM74.266 368.932C74.266 366.79 72.736 365.532 70.22 365.532H65.426V372.298H70.22C72.736 372.298 74.266 371.108 74.266 368.932ZM78.754 379.642C78.754 383.246 75.83 386 71.002 386H61.55V362.37H70.56C75.558 362.37 78.21 365.124 78.21 368.456C78.21 371.312 76.476 373.046 74.198 373.862C76.714 374.304 78.754 376.82 78.754 379.642ZM99.082 362.336V365.498H89.902V372.434H98.062V375.596H89.902V382.838H99.082V386H86.026V362.336H99.082ZM114.634 362.37C122.216 362.37 127.18 366.96 127.18 374.27C127.18 381.546 122.216 386 114.634 386H106.916V362.37H114.634ZM110.792 382.838H114.634C120.21 382.838 123.202 379.642 123.202 374.27C123.202 368.864 120.21 365.532 114.634 365.532H110.792V382.838ZM146.628 369.442C146.628 367.062 145.268 365.532 142.242 365.532H137.958V373.454H142.242C145.268 373.454 146.628 371.788 146.628 369.442ZM134.082 362.37H142.242C147.852 362.37 150.606 365.6 150.606 369.442C150.606 372.23 149.11 375.222 145.132 376.208L150.98 386H146.356L140.916 376.548H137.958V386H134.082V362.37ZM171.68 362.336V365.498H162.5V372.434H170.66V375.596H162.5V382.838H171.68V386H158.624V362.336H171.68ZM190.182 365.532V362.37H206.672V365.532H200.382V386H196.506V365.532H190.182ZM226.203 369.442C226.203 367.062 224.843 365.532 221.817 365.532H217.533V373.454H221.817C224.843 373.454 226.203 371.788 226.203 369.442ZM213.657 362.37H221.817C227.427 362.37 230.181 365.6 230.181 369.442C230.181 372.23 228.685 375.222 224.707 376.208L230.555 386H225.931L220.491 376.548H217.533V386H213.657V362.37ZM238.2 386V362.37H242.076V386H238.2ZM259.473 382.022L266.511 362.37H270.591L261.717 386H257.229L248.321 362.37H252.469L259.473 382.022ZM292.838 379.302C292.838 382.838 289.948 386.238 284.678 386.238C279.952 386.238 276.314 383.654 276.314 379.472H280.462C280.632 381.41 281.992 382.974 284.678 382.974C287.398 382.974 288.928 381.512 288.928 379.506C288.928 373.794 276.382 377.5 276.382 368.796C276.382 364.648 279.68 362.064 284.508 362.064C289.03 362.064 292.226 364.444 292.566 368.49H288.282C288.146 366.892 286.752 365.43 284.304 365.362C282.06 365.294 280.326 366.382 280.326 368.66C280.326 373.998 292.838 370.666 292.838 379.302ZM313.528 362.336V365.498H304.348V372.434H312.508V375.596H304.348V382.838H313.528V386H300.472V362.336H313.528ZM321.362 362.37H325.238V382.872H333.228V386H321.362V362.37ZM348.769 375.324V372.06H362.743V375.324H348.769ZM399.93 374.134C399.93 381.24 394.592 386.238 387.86 386.238C381.196 386.238 375.79 381.24 375.79 374.134C375.79 367.062 381.196 362.064 387.86 362.064C394.592 362.064 399.93 367.062 399.93 374.134ZM379.768 374.134C379.768 379.472 383.168 382.872 387.86 382.872C392.552 382.872 395.952 379.472 395.952 374.134C395.952 368.796 392.552 365.464 387.86 365.464C383.168 365.464 379.768 368.796 379.768 374.134ZM417.582 362.064C422.512 362.064 426.762 364.546 428.564 369.17H423.906C422.648 366.79 420.404 365.6 417.582 365.6C412.89 365.6 409.49 368.932 409.49 374.134C409.49 379.336 412.89 382.702 417.582 382.702C421.866 382.702 424.552 380.118 425.13 376.14H416.256V373.046H429.278V376.072C428.564 381.546 423.94 386.204 417.582 386.204C410.918 386.204 405.512 381.24 405.512 374.134C405.512 367.062 410.918 362.064 417.582 362.064ZM452.107 379.302C452.107 382.838 449.217 386.238 443.947 386.238C439.221 386.238 435.583 383.654 435.583 379.472H439.731C439.901 381.41 441.261 382.974 443.947 382.974C446.667 382.974 448.197 381.512 448.197 379.506C448.197 373.794 435.651 377.5 435.651 368.796C435.651 364.648 438.949 362.064 443.777 362.064C448.299 362.064 451.495 364.444 451.835 368.49H447.551C447.415 366.892 446.021 365.43 443.573 365.362C441.329 365.294 439.595 366.382 439.595 368.66C439.595 373.998 452.107 370.666 452.107 379.302ZM475.686 386L473.986 381.172H464.092L462.392 386H458.346L466.812 362.336H471.3L479.766 386H475.686ZM469.056 358.494C469.974 358.494 470.722 357.78 470.722 356.76C470.722 355.706 469.974 355.026 469.056 355.026C468.172 355.026 467.424 355.706 467.424 356.76C467.424 357.78 468.172 358.494 469.056 358.494ZM469.056 353.054C471.198 353.054 472.898 354.482 472.898 356.794C472.898 359.072 471.198 360.5 469.056 360.5C466.982 360.5 465.248 359.072 465.248 356.794C465.248 354.482 466.982 353.054 469.056 353.054ZM472.898 378.01L469.056 367.028L465.18 378.01H472.898ZM498.4 386V362.37H502.582L510.878 380.9L519.14 362.37H523.288V386H519.412V369.816L512.204 386H509.518L502.276 369.816V386H498.4ZM544.498 362.336V365.498H535.318V372.434H543.478V375.596H535.318V382.838H544.498V386H531.442V362.336H544.498ZM560.05 362.37C567.632 362.37 572.596 366.96 572.596 374.27C572.596 381.546 567.632 386 560.05 386H552.332V362.37H560.05ZM556.208 382.838H560.05C565.626 382.838 568.618 379.642 568.618 374.27C568.618 368.864 565.626 365.532 560.05 365.532H556.208V382.838ZM604.412 386L595.266 375.426V386H591.39V362.37H595.266V373.148L604.446 362.37H609.308L599.04 374.202L609.478 386H604.412ZM628.511 369.442C628.511 367.062 627.151 365.532 624.125 365.532H619.841V373.454H624.125C627.151 373.454 628.511 371.788 628.511 369.442ZM615.965 362.37H624.125C629.735 362.37 632.489 365.6 632.489 369.442C632.489 372.23 630.993 375.222 627.015 376.208L632.863 386H628.239L622.799 376.548H619.841V386H615.965V362.37ZM663.356 374.134C663.356 381.24 658.018 386.238 651.286 386.238C644.622 386.238 639.216 381.24 639.216 374.134C639.216 367.062 644.622 362.064 651.286 362.064C658.018 362.064 663.356 367.062 663.356 374.134ZM643.194 374.134C643.194 379.472 646.594 382.872 651.286 382.872C655.978 382.872 659.378 379.472 659.378 374.134C659.378 368.796 655.978 365.464 651.286 365.464C646.594 365.464 643.194 368.796 643.194 374.134ZM685.768 362.336H689.644V386H685.768L674.106 368.354V386H670.23V362.336H674.106L685.768 379.948V362.336ZM697.794 386V362.37H701.67V386H697.794ZM725.764 379.302C725.764 382.838 722.874 386.238 717.604 386.238C712.878 386.238 709.24 383.654 709.24 379.472H713.388C713.558 381.41 714.918 382.974 717.604 382.974C720.324 382.974 721.854 381.512 721.854 379.506C721.854 373.794 709.308 377.5 709.308 368.796C709.308 364.648 712.606 362.064 717.434 362.064C721.956 362.064 725.152 364.444 725.492 368.49H721.208C721.072 366.892 719.678 365.43 717.23 365.362C714.986 365.294 713.252 366.382 713.252 368.66C713.252 373.998 725.764 370.666 725.764 379.302ZM746.42 386L737.274 375.426V386H733.398V362.37H737.274V373.148L746.454 362.37H751.316L741.048 374.202L751.486 386H746.42ZM785.812 379.302C785.812 382.838 782.922 386.238 777.652 386.238C772.926 386.238 769.288 383.654 769.288 379.472H773.436C773.606 381.41 774.966 382.974 777.652 382.974C780.372 382.974 781.902 381.512 781.902 379.506C781.902 373.794 769.356 377.5 769.356 368.796C769.356 364.648 772.654 362.064 777.482 362.064C782.004 362.064 785.2 364.444 785.54 368.49H781.256C781.12 366.892 779.726 365.43 777.278 365.362C775.034 365.294 773.3 366.382 773.3 368.66C773.3 373.998 785.812 370.666 785.812 379.302ZM799.259 377.432L791.405 362.37H795.723L801.197 373.964L806.671 362.37H810.955L803.135 377.432V386H799.259V377.432ZM827.869 362.064C832.799 362.064 837.049 364.546 838.851 369.17H834.193C832.935 366.79 830.691 365.6 827.869 365.6C823.177 365.6 819.777 368.932 819.777 374.134C819.777 379.336 823.177 382.702 827.869 382.702C832.153 382.702 834.839 380.118 835.417 376.14H826.543V373.046H839.565V376.072C838.851 381.546 834.227 386.204 827.869 386.204C821.205 386.204 815.799 381.24 815.799 374.134C815.799 367.062 821.205 362.064 827.869 362.064ZM854.166 362.37C861.748 362.37 866.712 366.96 866.712 374.27C866.712 381.546 861.748 386 854.166 386H846.448V362.37H854.166ZM850.324 382.838H854.166C859.742 382.838 862.734 379.642 862.734 374.27C862.734 368.864 859.742 365.532 854.166 365.532H850.324V382.838ZM896.461 374.134C896.461 381.24 891.123 386.238 884.391 386.238C877.727 386.238 872.321 381.24 872.321 374.134C872.321 367.062 877.727 362.064 884.391 362.064C891.123 362.064 896.461 367.062 896.461 374.134ZM876.299 374.134C876.299 379.472 879.699 382.872 884.391 382.872C889.083 382.872 892.483 379.472 892.483 374.134C892.483 368.796 889.083 365.464 884.391 365.464C879.699 365.464 876.299 368.796 876.299 374.134ZM903.336 386V362.37H907.518L915.814 380.9L924.076 362.37H928.224V386H924.348V369.816L917.14 386H914.454L907.212 369.816V386H903.336Z" fill="white"/>
</svg>
